# xmcd
#
# Track frame offsets: 
#        150
#        8755
#        24275
#        33555
#        38162
#        47727
#        56992
#        68625
#        81505
#        91587
#        103850
#        113740
#        126250
#        132095
#        141585
#        146425
#        154000
#        160735
#        166980
#        172150
#        178800
#        196962
#        202242
#        213822
#        221157
#        229570
#
# Disc length: 3204 seconds
#
# Revision: 6
# Processed by: cddbd v1.5.2PL0 Copyright (c) Steve Scherf et al.
# Submitted via: ExactAudioCopy v0.99pb4
#
DISCID=770c821a
DTITLE=Various Artist - Fanfares, Symphonies et Suites  [Orchestre de chambre de J
DTITLE=ean-François Paillard}
DYEAR=1976
DGENRE=Classique
TTITLE0=Jean-Joseph Mouret - Fanfares pour trompettes, violons, hautbo
TTITLE0=is et timbales - I. Allegro
TTITLE1=Jean-Joseph Mouret - Fanfares pour trompettes, violons, hautbo
TTITLE1=is et timbales - II. Gracieusement
TTITLE2=Jean-Joseph Mouret - Fanfares pour trompettes, violons, hautbo
TTITLE2=is et timbales - III. Allegro
TTITLE3=Jean-Joseph Mouret - Fanfares pour trompettes, violons, hautbo
TTITLE3=is et timbales - IV. Guay
TTITLE4=Jean-Joseph Mouret - Suite de symphonies, violons, hautbois me
TTITLE4=lees de cors de chasse - I. Air, ou prelude
TTITLE5=Jean-Joseph Mouret - Suite de symphonies, violons, hautbois me
TTITLE5=lees de cors de chasse - II. Allegro
TTITLE6=Jean-Joseph Mouret - Suite de symphonies, violons, hautbois me
TTITLE6=lees de cors de chasse - III. Airs, gracieusement
TTITLE7=Jean-Joseph Mouret - Suite de symphonies, violons, hautbois me
TTITLE7=lees de cors de chasse - IV. Gavottes
TTITLE8=Jean-Joseph Mouret - Suite de symphonies, violons, hautbois me
TTITLE8=lees de cors de chasse - V. Fanfare et air
TTITLE9=Jean-Joseph Mouret - Suite de symphonies, violons, hautbois me
TTITLE9=lees de cors de chasse - VI. Menuets
TTITLE10=Jean-Joseph Mouret - Suite de symphonies, violons, hautbois m
TTITLE10=elees de cors de chasse - VII. Allegro
TTITLE11=Jean-Baptiste Lully - Suite de symphonies d'Amadis - I. Ouver
TTITLE11=ture
TTITLE12=Jean-Baptiste Lully - Suite de symphonies d'Amadis - II. Prem
TTITLE12=ier Air
TTITLE13=Jean-Baptiste Lully - Suite de symphonies d'Amadis - III. Sec
TTITLE13=ond air - Gigue
TTITLE14=Jean-Baptiste Lully - Suite de symphonies d'Amadis - IV. Rond
TTITLE14=eau
TTITLE15=Jean-Baptiste Lully - Suite de symphonies d'Amadis - V. Air p
TTITLE15=our les Demons et les Monstres
TTITLE16=Jean-Baptiste Lully - Suite de symphonies d'Amadis - VI. Menu
TTITLE16=et
TTITLE17=Jean-Baptiste Lully - Suite de symphonies d'Amadis - VII. Pre
TTITLE17=mier Air des Combattants
TTITLE18=Jean-Baptiste Lully - Suite de symphonies d'Amadis - VIII. Se
TTITLE18=cond Air
TTITLE19=Jean-Baptiste Lully - Suite de symphonies d'Amadis - IX. Marc
TTITLE19=he pour le combat de la barriere
TTITLE20=Disciple anonyme de Lully ? - I. Ouverture
TTITLE21=Disciple anonyme de Lully ? - II. Bouree
TTITLE22=Disciple anonyme de Lully ? - III. Sarabande. 
TTITLE23=Disciple anonyme de Lully ? - IV. Prelude
TTITLE24=Disciple anonyme de Lully ? - V. Concert
TTITLE25=Disciple anonyme de Lully ? - VI. Gigue
EXTD=YEAR: 1976
EXTT0=
EXTT1=
EXTT2=
EXTT3=
EXTT4=
EXTT5=
EXTT6=
EXTT7=
EXTT8=
EXTT9=
EXTT10=
EXTT11=
EXTT12=
EXTT13=
EXTT14=
EXTT15=
EXTT16=
EXTT17=
EXTT18=
EXTT19=
EXTT20=
EXTT21=
EXTT22=
EXTT23=
EXTT24=
EXTT25=
PLAYORDER=
